#N canvas 901 37 1601 1097 12;
#X obj 16 8 cnv 15 850 500 empty empty DomeRenderer 20 12 0 18 -262130
-66577 0;
#X obj 373 333 OSCprepend /satie/process/property;
#X obj 131 88 tgl 36 0 empty empty NearFieldEnable -40 -16 0 24 -262144
-1 -1 0 1;
#X obj 375 77 nbx 7 36 -1e+37 1e+37 0 0 empty empty XfadeExponent 0
-16 0 24 -262144 -1 -1 1 256;
#X obj 604 75 nbx 7 36 -1e+37 1e+37 0 0 empty empty nearFieldRadius
0 -16 0 24 -262144 -1 -1 20 256;
#X obj 373 362 s \$0-toDomeRenderer;
#X obj 24 536 cnv 15 850 500 empty empty NearFieldRenderer 20 12 0
18 -262130 -66577 0;
#X obj 342 901 s \$0-toNearFieldRenderer;
#X obj 906 537 cnv 15 650 500 empty empty OSC 20 12 0 18 -228856 -66577
0;
#X obj 973 900 OSCtx;
#X msg 992 626 10.10.100.252;
#X obj 977 587 loadbang1 10.10.100.252;
#X obj 1193 590 loadbang1 localhost;
#X symbolatom 1267 715 18 0 0 0 - - -, f 18;
#X msg 1191 770 connect \$1 18032;
#X msg 1292 680 symbol 10.10.100.252;
#X obj 1007 707 prepend symbol;
#X msg 973 772 connect \$1 18032;
#X symbolatom 1006 731 18 0 0 0 - - -, f 18;
#X msg 1015 677 localhost;
#X obj 1193 894 OSCtx;
#X obj 973 932 tgl 15 0 empty empty empty 17 7 0 10 -262144 -1 -1 18489
1;
#X obj 1194 924 tgl 15 0 empty empty empty 17 7 0 10 -262144 -1 -1
17332 1;
#X obj 972 807 s \$0-toDomeRenderer;
#X obj 972 868 r \$0-toDomeRenderer;
#X obj 1191 808 s \$0-toNearFieldRenderer;
#X obj 1192 862 r \$0-toNearFieldRenderer;
#X obj 904 14 cnv 15 650 500 empty empty Control 20 12 0 18 -228856
-66577 0;
#X obj 185 114 loadbang1 0;
#X obj 955 77 bng 42 250 50 0 empty empty reset 0 -18 0 24 -262144
-1 -1;
#X obj 955 127 s \$0-reset;
#X obj 185 87 r \$0-reset;
#X msg 1270 643 symbol localhost;
#N canvas 780 107 565 480 (subpatch) 0;
#X msg 108 155 1 \, 2 \, 3 \, 4 \, 5 \, 6 \, 7 \, 8;
#X obj 161 220 anyreg \$0-objectNameRoot;
#X msg 160 286 set \$1;
#X obj 130 319 makefilename not-set-yet;
#X obj 160 252 makefilename %s%%d;
#X obj 160 190 r \$0-reset;
#X obj 138 97 t b a;
#X obj 129 349 list append;
#X obj 129 379 list trim;
#X obj 143 58 inlet;
#X obj 128 414 outlet;
#X connect 0 0 3 0;
#X connect 1 0 4 0;
#X connect 2 0 3 0;
#X connect 3 0 7 0;
#X connect 4 0 2 0;
#X connect 5 0 1 0;
#X connect 6 0 0 0;
#X connect 6 1 7 1;
#X connect 7 0 8 0;
#X connect 8 0 10 0;
#X connect 9 0 6 0;
#X restore 373 301 pd;
#X obj 1124 69 r \$0-reset;
#X obj 1125 131 anyreg \$0-objectNameRoot flutter;
#X obj 342 865 OSCprepend /satie/process/property;
#X obj 100 620 tgl 36 0 empty empty NearFieldEnable -40 -16 0 24 -262144
-1 -1 1 1;
#X obj 344 609 nbx 7 36 -1e+37 1e+37 0 0 empty empty XfadeExponent
0 -16 0 24 -262144 -1 -1 1 256;
#X obj 573 607 nbx 7 36 -1e+37 1e+37 0 0 empty empty nearFieldRadius
0 -16 0 24 -262144 -1 -1 20 256;
#X obj 154 619 r \$0-reset;
#N canvas 780 107 565 480 (subpatch) 0;
#X msg 108 155 1 \, 2 \, 3 \, 4 \, 5 \, 6 \, 7 \, 8;
#X obj 161 220 anyreg \$0-objectNameRoot;
#X msg 160 286 set \$1;
#X obj 130 319 makefilename not-set-yet;
#X obj 160 252 makefilename %s%%d;
#X obj 160 190 r \$0-reset;
#X obj 138 97 t b a;
#X obj 129 349 list append;
#X obj 129 379 list trim;
#X obj 143 58 inlet;
#X obj 128 414 outlet;
#X connect 0 0 3 0;
#X connect 1 0 4 0;
#X connect 2 0 3 0;
#X connect 3 0 7 0;
#X connect 4 0 2 0;
#X connect 5 0 1 0;
#X connect 6 0 0 0;
#X connect 6 1 7 1;
#X connect 7 0 8 0;
#X connect 8 0 10 0;
#X connect 9 0 6 0;
#X restore 342 833 pd;
#X obj 154 646 loadbang1 1;
#X msg 1124 101 flutterObj;
#X msg 98 712 nearFieldToggle \$1;
#X msg 344 718 nearFieldExp \$1;
#X msg 129 180 nearFieldToggle \$1;
#X msg 375 186 nearFieldExp \$1;
#X msg 600 191 nearFieldRadius \$1;
#X msg 569 723 nearFieldRadius \$1;
#X msg 1008 645 192.168.13;
#X connect 1 0 5 0;
#X connect 2 0 46 0;
#X connect 3 0 47 0;
#X connect 3 0 38 0;
#X connect 4 0 48 0;
#X connect 4 0 39 0;
#X connect 9 0 21 0;
#X connect 10 0 16 0;
#X connect 11 0 17 0;
#X connect 12 0 14 0;
#X connect 13 0 14 0;
#X connect 14 0 25 0;
#X connect 15 0 13 0;
#X connect 16 0 18 0;
#X connect 17 0 23 0;
#X connect 18 0 17 0;
#X connect 19 0 16 0;
#X connect 20 0 22 0;
#X connect 24 0 9 0;
#X connect 26 0 20 0;
#X connect 28 0 2 0;
#X connect 29 0 30 0;
#X connect 31 0 28 0;
#X connect 32 0 13 0;
#X connect 33 0 1 0;
#X connect 34 0 43 0;
#X connect 36 0 7 0;
#X connect 37 0 44 0;
#X connect 38 0 45 0;
#X connect 39 0 49 0;
#X connect 40 0 42 0;
#X connect 41 0 36 0;
#X connect 42 0 37 0;
#X connect 43 0 35 0;
#X connect 44 0 41 0;
#X connect 45 0 41 0;
#X connect 46 0 33 0;
#X connect 47 0 33 0;
#X connect 48 0 33 0;
#X connect 49 0 41 0;
#X connect 50 0 16 0;
