#N canvas 1537 385 732 681 10;
#X obj 202 194 meter8~;
#X obj 43 194 meter8~;
#X obj 42 148 adc~ 1 2 3 4 5 6 7 8 9 10 11 12 13 14 15 16;
#X obj 518 195 meter8~;
#X obj 359 195 meter8~;
#X obj 358 149 adc~ 17 18 19 20 21 22 23 24 25 26 27 28 29 30 31 32
;
#X obj 208 379 dac~ 1 2;
#X connect 2 0 1 0;
#X connect 2 1 1 1;
#X connect 2 2 1 2;
#X connect 2 3 1 3;
#X connect 2 4 1 4;
#X connect 2 5 1 5;
#X connect 2 5 6 0;
#X connect 2 6 1 6;
#X connect 2 6 6 1;
#X connect 2 7 1 7;
#X connect 2 7 6 0;
#X connect 2 8 0 0;
#X connect 2 8 6 0;
#X connect 2 9 0 1;
#X connect 2 10 0 2;
#X connect 2 11 0 3;
#X connect 2 12 0 4;
#X connect 2 12 6 1;
#X connect 2 13 0 5;
#X connect 2 13 6 0;
#X connect 2 14 0 6;
#X connect 2 14 6 1;
#X connect 2 15 0 7;
#X connect 5 0 4 0;
#X connect 5 0 6 0;
#X connect 5 1 4 1;
#X connect 5 1 6 1;
#X connect 5 2 4 2;
#X connect 5 2 6 1;
#X connect 5 3 4 3;
#X connect 5 3 6 1;
#X connect 5 4 4 4;
#X connect 5 5 4 5;
#X connect 5 6 4 6;
#X connect 5 7 4 7;
#X connect 5 8 3 0;
#X connect 5 9 3 1;
#X connect 5 10 3 2;
#X connect 5 11 3 3;
#X connect 5 12 3 4;
#X connect 5 13 3 5;
#X connect 5 14 3 6;
#X connect 5 15 3 7;
