#N canvas 615 216 1475 686 36;
#X obj 76 47 adc~ 1 2 3 4 5 6 7 8 9 10 11 12 13 14 15 16 17 18 19 20
21 22 23 24 25 26 27 28 29 30 31;
#X obj 77 176 dac~ 1 2 1 2 1 2 1 2 1 2 1 2 1 2 1 2 1 2 1 2 1 2 1 2
1 2 1 2 1 2 1;
#X connect 0 0 1 0;
#X connect 0 1 1 1;
#X connect 0 2 1 2;
#X connect 0 3 1 3;
#X connect 0 4 1 4;
#X connect 0 5 1 5;
#X connect 0 6 1 6;
#X connect 0 7 1 7;
#X connect 0 8 1 8;
#X connect 0 9 1 9;
#X connect 0 10 1 10;
#X connect 0 11 1 11;
#X connect 0 12 1 12;
#X connect 0 13 1 13;
#X connect 0 14 1 14;
#X connect 0 15 1 15;
#X connect 0 16 1 16;
#X connect 0 17 1 17;
#X connect 0 18 1 18;
#X connect 0 19 1 19;
#X connect 0 20 1 20;
#X connect 0 21 1 21;
#X connect 0 22 1 22;
#X connect 0 23 1 23;
#X connect 0 24 1 24;
#X connect 0 25 1 25;
#X connect 0 26 1 26;
#X connect 0 27 1 27;
#X connect 0 28 1 28;
#X connect 0 29 1 29;
#X connect 0 30 1 30;
