#N canvas 603 81 1785 1311 12;
#X obj 17 10 cnv 15 800 500 empty empty display_RX_renderer_messages
20 12 0 18 -262130 -66577 0;
#X obj 767 846 OSCtx;
#X obj 26 46 loadbang;
#X msg 780 548 sourceB gainDB -11 aziDeg -90;
#X msg 1054 769 /satie/scene clear;
#X msg 532 781 sourceB spread 0;
#X obj 523 887 OSCprepend /satie/group/set;
#X msg 583 818 pluck1_group amp 1;
#X msg 847 616 srcNode_14 trimDB 30;
#X msg 467 614 srcNode_0 sheefa 1 cunt 2;
#X msg 492 674 srcNode_d0 sheefa 1 cunt 2;
#X obj 449 755 OSCprepend /satie/process/property;
#X obj 79 670 OSCparse /satie/*/set;
#X obj 79 628 t a a;
#X obj 156 794 anyreg sheefa;
#X obj 77 747 t b;
#X obj 250 1255 p;
#X obj 805 743 OSCparse /satie/*/property;
#X obj 79 942 t a a;
#X obj 156 1108 anyreg sheefa;
#X obj 77 1061 t b;
#X obj 169 1170 p;
#X obj 79 984 OSCparse /satie/*/property;
#X obj 880 826 r \$0-toOSCout;
#X obj 1396 842 s \$0-toOSCout;
#X obj 1397 808 OSCprepend /satie/process/setvec;
#X msg 1397 711 srcNode_0 note 50 1 1;
#X msg 1344 644 srcNode_0 t_trig 1;
#X msg 799 1015 /satie/source/setvec sourceA note 60 1 1;
#X obj 1216 1114 metro 100;
#X msg 841 1100 /satie/source/set sourceA t_trig 1;
#X obj 1146 1000 tgl 15 0 empty empty empty 17 7 0 10 -262144 -1 -1
0 1;
#X floatatom 1182 1025 5 0 0 0 - - -, f 5;
#X msg 789 1232 /satie/source/set sourceA t_trig 0;
#X obj 1203 1180 delay 50;
#X msg 1066 853 /satie/load /Users/zack/src/balljam/satieProject/balljam.scd
;
#X msg 1104 913 /satie/load /Users/zack/Dropbox/Unity3D/audioRendering/sc/sc-basic-renderer/examples/satieOSCexample/satieOSCexample.scd
;
#X obj 343 1112 OSCrx 18032;
#X msg 322 212 1 \, 2 \, 3 \, 4 \, 5 \, 6 \, 7 \, 8;
#X msg 72 183 connect localhost 18032;
#X obj 768 682 OSCprepend /satie/process/set;
#X obj 583 429 OSCprepend /satie/process/property;
#X obj 585 470 s \$0-toOSCout;
#X obj 72 230 s \$0-toOSCout;
#X msg 107 98 10.10.100.252;
#X obj 430 139 t b f;
#X obj 432 88 tgl 36 0 empty empty NearFieldEnable -40 -16 0 24 -262144
-1 -1 0 1;
#X obj 398 296 pack 0 0;
#X msg 398 332 source\$1 nearFieldToggle \$2;
#X msg 607 209 1 \, 2 \, 3 \, 4 \, 5 \, 6 \, 7 \, 8;
#X obj 715 136 t b f;
#X obj 683 293 pack 0 0;
#X msg 684 329 source\$1 nearFieldExp \$2;
#X obj 718 73 nbx 7 36 -1e+37 1e+37 0 0 empty empty XfadeExponent 0
-16 0 24 -262144 -1 -1 0 256;
#X msg 864 218 1 \, 2 \, 3 \, 4 \, 5 \, 6 \, 7 \, 8;
#X obj 972 145 t b f;
#X obj 940 302 pack 0 0;
#X obj 975 82 nbx 7 36 -1e+37 1e+37 0 0 empty empty nearFieldRadius
0 -16 0 24 -262144 -1 -1 0 256;
#X msg 941 338 source\$1 nearFieldRadius \$2;
#X text 33 515 /satie/source/update sourceName AZI ELEV Gain del lpf
hpf dist;
#X connect 2 0 39 0;
#X connect 3 0 40 0;
#X connect 4 0 1 0;
#X connect 5 0 6 0;
#X connect 6 0 1 0;
#X connect 7 0 6 0;
#X connect 8 0 40 0;
#X connect 9 0 11 0;
#X connect 10 0 11 0;
#X connect 11 0 1 0;
#X connect 12 0 15 0;
#X connect 12 1 18 0;
#X connect 13 0 12 0;
#X connect 13 1 14 0;
#X connect 15 0 14 0;
#X connect 18 0 22 0;
#X connect 18 1 19 0;
#X connect 19 0 21 0;
#X connect 20 0 19 0;
#X connect 22 0 20 0;
#X connect 22 1 16 0;
#X connect 23 0 1 0;
#X connect 25 0 24 0;
#X connect 26 0 25 0;
#X connect 27 0 25 0;
#X connect 28 0 1 0;
#X connect 29 0 30 0;
#X connect 29 0 34 0;
#X connect 30 0 1 0;
#X connect 31 0 29 0;
#X connect 32 0 29 1;
#X connect 33 0 1 0;
#X connect 35 0 1 0;
#X connect 36 0 1 0;
#X connect 37 0 16 0;
#X connect 38 0 47 0;
#X connect 39 0 43 0;
#X connect 40 0 1 0;
#X connect 41 0 42 0;
#X connect 44 0 39 0;
#X connect 45 0 38 0;
#X connect 45 1 47 1;
#X connect 46 0 45 0;
#X connect 47 0 48 0;
#X connect 48 0 41 0;
#X connect 49 0 51 0;
#X connect 50 0 49 0;
#X connect 50 1 51 1;
#X connect 51 0 52 0;
#X connect 52 0 41 0;
#X connect 53 0 50 0;
#X connect 54 0 56 0;
#X connect 55 0 54 0;
#X connect 55 1 56 1;
#X connect 56 0 58 0;
#X connect 57 0 55 0;
#X connect 58 0 41 0;
