#N canvas 586 84 1597 1330 16;
#X obj 17 10 cnv 15 800 500 empty empty display_RX_renderer_messages
20 12 0 18 -262130 -66577 0;
#X obj 598 911 OSCtx;
#X obj 727 694 loadbang;
#X obj 579 780 p;
#X msg 804 387 sourceB gainDB -11 aziDeg -90;
#X msg 1106 828 /satie/scene clear;
#X msg 421 436 sourceB spread 0;
#X obj 412 542 OSCprepend /satie/group/set;
#X msg 472 473 pluck1_group amp 1;
#X obj 637 577 OSCprepend /satie/process/set;
#X msg 899 480 srcNode_14 trimDB 30;
#X msg 912 523 srcNode_14 spread 50;
#X msg 461 200 srcNode_0 sheefa 1 cunt 2;
#X msg 486 260 srcNode_d0 sheefa 1 cunt 2;
#X obj 443 341 OSCprepend /satie/process/property;
#X obj 79 174 OSCparse /satie/*/set;
#X obj 79 132 t a a;
#X obj 156 298 anyreg sheefa;
#X obj 77 251 t b;
#X obj 250 759 p;
#X obj 497 106 OSCparse /satie/*/property;
#X obj 79 446 t a a;
#X obj 156 612 anyreg sheefa;
#X obj 77 565 t b;
#X obj 169 674 p;
#X obj 79 488 OSCparse /satie/*/property;
#X obj 801 802 r \$0-toOSCout;
#X obj 1027 301 s \$0-toOSCout;
#X obj 1035 241 OSCprepend /satie/process/setvec;
#X msg 1035 144 srcNode_0 note 50 1 1;
#X msg 982 77 srcNode_0 t_trig 1;
#X obj 80 95 OSCrx 18033;
#X msg 699 850 /satie/source/state srcNode_0 1;
#X msg 684 749 connect 192.168.0.12 18032;
#X msg 770 1044 /satie/scene createSource eee effect://default defaultFx
;
#X msg 773 1002 /satie/scene createSource bbb plugin://default fuckme
;
#X msg 770 964 /satie/scene createSource aaaa plugin://default;
#X msg 773 1085 /satie/scene createSource ccc effect://default sheefaFX
;
#X msg 750 1137 /satie/scene createSource fff effect://default;
#X msg 747 1189 /satie/scene createSource jjj effect://default wegwhegwheghwgehwg
;
#X msg 654 1259 /satie/scene createGroup lll effect://;
#X connect 2 0 33 0;
#X connect 4 0 9 0;
#X connect 5 0 1 0;
#X connect 6 0 7 0;
#X connect 7 0 1 0;
#X connect 7 0 3 0;
#X connect 8 0 7 0;
#X connect 9 0 1 0;
#X connect 9 0 3 0;
#X connect 10 0 9 0;
#X connect 11 0 9 0;
#X connect 12 0 14 0;
#X connect 13 0 14 0;
#X connect 14 0 1 0;
#X connect 15 0 18 0;
#X connect 15 1 21 0;
#X connect 16 0 15 0;
#X connect 16 1 17 0;
#X connect 18 0 17 0;
#X connect 21 0 25 0;
#X connect 21 1 22 0;
#X connect 22 0 24 0;
#X connect 23 0 22 0;
#X connect 25 0 23 0;
#X connect 25 1 19 0;
#X connect 26 0 1 0;
#X connect 28 0 27 0;
#X connect 29 0 28 0;
#X connect 30 0 28 0;
#X connect 31 0 16 0;
#X connect 32 0 1 0;
#X connect 33 0 1 0;
#X connect 34 0 1 0;
#X connect 35 0 1 0;
#X connect 36 0 1 0;
#X connect 37 0 1 0;
#X connect 38 0 1 0;
#X connect 39 0 1 0;
#X connect 40 0 1 0;
