#N canvas 1072 361 1347 1057 16;
#X obj 17 10 cnv 15 800 500 empty empty display_RX_renderer_messages
20 12 0 18 -262130 -66577 0;
#X obj 650 813 OSCtx;
#X obj 727 694 loadbang;
#X msg 684 749 connect localhost 18032;
#X obj 579 780 p;
#X msg 804 387 sourceB gainDB -11 aziDeg -90;
#X msg 951 659 /satie/scene clear;
#X msg 421 436 sourceB spread 0;
#X obj 412 542 OSCprepend /satie/group/set;
#X msg 472 473 pluck1_group amp 1;
#X obj 651 649 OSCprepend /satie/process/set;
#X msg 899 480 srcNode_14 trimDB 30;
#X msg 912 523 srcNode_14 spread 50;
#X msg 461 200 srcNode_0 sheefa 1 cunt 2;
#X msg 486 260 srcNode_d0 sheefa 1 cunt 2;
#X obj 443 341 OSCprepend /satie/process/property;
#X obj 79 174 OSCparse /satie/*/set;
#X obj 79 132 t a a;
#X obj 156 298 anyreg sheefa;
#X obj 77 251 t b;
#X obj 250 759 p;
#X obj 497 106 OSCparse /satie/*/property;
#X obj 79 446 t a a;
#X obj 156 612 anyreg sheefa;
#X obj 77 565 t b;
#X obj 169 674 p;
#X obj 79 488 OSCparse /satie/*/property;
#X obj 801 802 r \$0-toOSCout;
#X obj 1027 301 s \$0-toOSCout;
#X obj 1035 241 OSCprepend /satie/process/setvec;
#X msg 1035 144 srcNode_0 note 50 1 1;
#X msg 982 77 srcNode_0 t_trig 1;
#X msg 733 874 /satie/source/state srcNode_0 1;
#X obj 80 95 OSCrx 1803;
#X connect 2 0 3 0;
#X connect 3 0 1 0;
#X connect 5 0 10 0;
#X connect 6 0 1 0;
#X connect 7 0 8 0;
#X connect 8 0 1 0;
#X connect 8 0 4 0;
#X connect 9 0 8 0;
#X connect 10 0 1 0;
#X connect 10 0 4 0;
#X connect 11 0 10 0;
#X connect 12 0 10 0;
#X connect 13 0 15 0;
#X connect 14 0 15 0;
#X connect 15 0 1 0;
#X connect 16 0 19 0;
#X connect 16 1 22 0;
#X connect 17 0 16 0;
#X connect 17 1 18 0;
#X connect 19 0 18 0;
#X connect 22 0 26 0;
#X connect 22 1 23 0;
#X connect 23 0 25 0;
#X connect 24 0 23 0;
#X connect 26 0 24 0;
#X connect 26 1 20 0;
#X connect 27 0 1 0;
#X connect 29 0 28 0;
#X connect 30 0 29 0;
#X connect 31 0 29 0;
#X connect 32 0 1 0;
#X connect 33 0 17 0;
