#N canvas 283 741 1390 861 16;
#X obj 17 10 cnv 15 800 500 empty empty display_RX_renderer_messages
20 12 0 18 -262130 -66577 0;
#X obj 497 121 OSCrx 8001;
#X obj 498 163 OSCparse /quat;
#X obj 480 558 OSCtx;
#X msg 514 494 connect localhost 8002;
#X obj 557 439 loadbang;
#X obj 481 394 OSCprepend /quat;
#X obj 839 191 unpack 0 0 0 0;
#X obj 836 280 pack 0 0 0 0 0;
#X obj 773 201 t b f;
#X msg 760 342 \$1 \$3 \$2 \$4;
#X text 772 317 change order and rotate quat 90 degrees;
#X obj 777 737 OSCtx;
#X obj 854 618 loadbang;
#X msg 811 673 connect localhost 18032;
#X obj 706 704 p;
#X msg 804 387 sourceB gainDB -11 aziDeg -90;
#X msg 853 442 sourceB spread 0;
#X msg 1078 583 /satie/scene clear;
#X msg 102 422 sourceB spread 0;
#X obj 93 528 OSCprepend /satie/group/set;
#X msg 153 459 pluck1_group amp 1;
#X obj 778 573 OSCprepend /satie/process/set;
#X msg 899 480 srcNode_14 trimDB 30;
#X msg 912 523 srcNode_14 spread 50;
#X obj 112 187 OSCparse /satie/process/set;
#X obj 121 286 p;
#X obj 113 108 OSCrx 18033;
#X connect 1 0 2 0;
#X connect 2 0 10 0;
#X connect 4 0 3 0;
#X connect 5 0 4 0;
#X connect 6 0 3 0;
#X connect 7 0 9 0;
#X connect 7 1 8 3;
#X connect 7 2 8 2;
#X connect 7 3 8 4;
#X connect 9 0 8 0;
#X connect 9 1 8 1;
#X connect 10 0 6 0;
#X connect 13 0 14 0;
#X connect 14 0 12 0;
#X connect 16 0 22 0;
#X connect 17 0 22 0;
#X connect 18 0 12 0;
#X connect 19 0 20 0;
#X connect 20 0 12 0;
#X connect 20 0 15 0;
#X connect 21 0 20 0;
#X connect 22 0 12 0;
#X connect 22 0 15 0;
#X connect 23 0 22 0;
#X connect 24 0 22 0;
#X connect 25 0 26 0;
#X connect 27 0 25 0;
