#N canvas 1052 317 842 527 16;
#X obj 17 10 cnv 15 800 500 empty empty renderer_messages 20 12 0 18
-262130 -66577 0;
#X obj 53 368 OSCtx;
#X obj 112 356 tgl 36 0 empty empty onLineStatus 40 7 0 16 -262144
-1 -1 15214 15770;
#X msg 26 161 connect localhost 18032;
#X obj 67 328 r \$0-toSatie;
#X obj 24 127 loadbang;
#X floatatom 459 148 5 0 0 0 - - -, f 5;
#X obj 463 127 hsl 128 15 -40 0 0 0 empty empty empty 0 0 0 10 -262144
-1 -1 0 1;
#X floatatom 524 216 5 0 0 0 - - -, f 5;
#X obj 526 191 hsl 128 15 -66 18 0 0 empty empty empty 0 0 0 10 -262144
-1 -1 0 1;
#X obj 360 53 tgl 15 0 empty empty empty 17 7 0 10 -262144 -1 -1 0
1;
#X obj 409 102 tgl 15 0 empty empty empty 17 7 0 10 -262144 -1 -1 0
1;
#X msg 583 216 setOutputDB \$1;
#X msg 512 150 setOutputTrimDB \$1;
#X msg 427 94 setOutputMute \$1;
#X msg 381 46 setOutputDIM \$1;
#X msg 58 203 connect 192.168.0.13 18032;
#X obj 368 295 s \$0-toSatieRenderer;
#N canvas 933 533 707 581 old 0;
#X obj 40 221 s \$0-toSatie;
#X msg 40 42 setProjectDir /Users/zack/src/aquakhoria/AquaKhoria_UnityProject/Assets/StreamingAssets
;
#X msg 78 136 setProjectDir /Users/metalab/src/aquakhoria/AquaKhoria_UnityProject/Assets/StreamingAssets
;
#X connect 1 0 0 0;
#X connect 2 0 0 0;
#X restore 37 39 pd old;
#X msg 586 253 freeSynths default;
#X obj 586 288 s \$0-toSatieRenderer;
#N canvas 118 35 600 572 works 0;
#X obj 103 79 OSCprepend /satie/scene;
#X obj 103 31 r \$0-toSatieScene;
#X obj 98 548 s \$0-toSatie;
#X obj 218 457 OSCprepend /satie/rendererCtl;
#X obj 218 421 r \$0-toSatieRenderer;
#X obj 149 162 OSCprepend /satie/source;
#X obj 149 126 r \$0-toSatieSource;
#X obj 188 223 r \$0-toSatieGroup;
#X obj 188 259 OSCprepend /satie/group;
#X obj 211 312 r \$0-toSatieProcess;
#X obj 211 348 OSCprepend /satie/process;
#X connect 0 0 2 0;
#X connect 1 0 0 0;
#X connect 3 0 2 0;
#X connect 4 0 3 0;
#X connect 5 0 2 0;
#X connect 6 0 5 0;
#X connect 7 0 8 0;
#X connect 8 0 2 0;
#X connect 9 0 10 0;
#X connect 10 0 2 0;
#X restore 37 71 pd works;
#N canvas 378 157 555 669 GROUP_TEST 1;
#X obj 6 8 cnv 15 500 700 empty empty group 20 12 0 18 -204786 -66577
0;
#X floatatom 248 160 5 0 0 0 - - -, f 5;
#X obj 274 231 tgl 15 0 empty empty empty 17 7 0 10 -262144 -1 -1 0
1;
#X obj 281 292 tgl 15 0 empty empty empty 17 7 0 10 -262144 -1 -1 0
1;
#X obj 86 110 s \$0-toSatieScene;
#X msg 96 73 deleteNode groupA;
#X msg 293 227 /state groupA \$1;
#X msg 300 288 /event groupA \$1;
#X obj 221 505 s \$0-toSatieGroup;
#X msg 249 190 /prop groupA sheefa \$1;
#X msg 74 31 createGroup groupA;
#X msg 291 398 /add groupA sourceA;
#X msg 284 439 /drop groupA sourceA;
#X connect 1 0 9 0;
#X connect 2 0 6 0;
#X connect 3 0 7 0;
#X connect 5 0 4 0;
#X connect 6 0 8 0;
#X connect 7 0 8 0;
#X connect 9 0 8 0;
#X connect 10 0 4 0;
#X connect 11 0 8 0;
#X connect 12 0 8 0;
#X restore 658 47 pd GROUP_TEST;
#N canvas 1396 180 823 630 SOURCE_TEST 1;
#X obj 3 9 cnv 15 800 600 empty empty source 20 12 0 18 -191407 -66577
0;
#X floatatom 25 137 5 0 0 0 - - -, f 5;
#X obj 51 208 tgl 15 0 empty empty empty 17 7 0 10 -262144 -1 -1 0
1;
#X obj 58 269 tgl 15 0 empty empty empty 17 7 0 10 -262144 -1 -1 0
1;
#X obj 100 107 s \$0-toSatieScene;
#X msg 70 204 /state sourceA \$1;
#X msg 110 70 deleteNode sourceA;
#X obj 29 317 s \$0-toSatieSource;
#X obj 334 289 hotpack3 0 0 0;
#X obj 334 89 hsl 128 15 -180 180 0 0 empty empty empty -2 -8 0 10
-262144 -1 -1 9700 1;
#X obj 334 258 deg2rad;
#X obj 412 115 vsl 15 128 -90 90 0 0 empty empty empty 0 -9 0 10 -262144
-1 -1 6200 1;
#X obj 412 257 deg2rad;
#X obj 478 92 vsl 15 128 -66 0 0 0 empty empty empty 0 -9 0 10 -262144
-1 -1 9300 1;
#X obj 278 290 vsl 15 128 30 90 0 0 empty empty empty 0 -9 0 10 -262144
-1 -1 500 1;
#X obj 278 429 mtof;
#X obj 329 550 s \$0-toSatieSource;
#X obj 398 382 hsl 128 15 0 2 0 0 empty empty empty -2 -8 0 10 -262144
-1 -1 8300 1;
#X msg 279 467 /hpHz sourceA \$1;
#X msg 396 412 /spread sourceA \$1;
#X msg 26 167 /prop sourceA sheefa \$1;
#X msg 77 265 /event sourceA fuckme \$1;
#X msg 88 28 createSource sourceA plugin://default default;
#X msg 20 59 clear;
#X msg 333 330 /update sourceA \$1 \$2 \$3 10 5000 10;
#X connect 1 0 20 0;
#X connect 2 0 5 0;
#X connect 3 0 21 0;
#X connect 5 0 7 0;
#X connect 6 0 4 0;
#X connect 8 0 24 0;
#X connect 9 0 10 0;
#X connect 10 0 8 0;
#X connect 11 0 12 0;
#X connect 12 0 8 1;
#X connect 13 0 8 2;
#X connect 14 0 15 0;
#X connect 15 0 18 0;
#X connect 17 0 19 0;
#X connect 18 0 16 0;
#X connect 19 0 16 0;
#X connect 20 0 7 0;
#X connect 21 0 7 0;
#X connect 22 0 4 0;
#X connect 23 0 4 0;
#X connect 24 0 16 0;
#X restore 658 84 pd SOURCE_TEST;
#N canvas 402 253 735 739 PROCESS_TEST 0;
#X obj 5 8 cnv 15 700 700 empty empty process 20 12 0 18 -204800 -66577
0;
#X floatatom 248 160 5 0 0 0 - - -, f 5;
#X obj 274 231 tgl 15 0 empty empty empty 17 7 0 10 -262144 -1 -1 0
1;
#X obj 281 292 tgl 15 0 empty empty empty 17 7 0 10 -262144 -1 -1 0
1;
#X obj 86 110 s \$0-toSatieScene;
#X obj 73 363 hotpack3 0 0 0;
#X obj 73 163 hsl 128 15 -180 180 0 0 empty empty empty -2 -8 0 10
-262144 -1 -1 0 1;
#X obj 73 332 deg2rad;
#X obj 151 189 vsl 15 128 -90 90 0 0 empty empty empty 0 -9 0 10 -262144
-1 -1 0 1;
#X obj 151 331 deg2rad;
#X obj 217 166 vsl 15 128 -66 0 0 0 empty empty empty 0 -9 0 10 -262144
-1 -1 0 1;
#X obj 137 456 hsl 128 15 0 2 0 0 empty empty empty -2 -8 0 10 -262144
-1 -1 0 1;
#X msg 96 73 deleteNode processA;
#X msg 249 190 /prop processA sheefa \$1;
#X msg 293 227 /state processA \$1;
#X msg 300 288 /event processA \$1;
#X msg 135 486 /spread processA \$1;
#X obj 252 340 s \$0-toSatieProcess;
#X obj 68 624 s \$0-toSatieProcess;
#X msg 74 31 createProcess processA process://sheefa default;
#X msg 72 404 /update processA \$1 \$2 \$3 10 5000 10;
#X connect 1 0 13 0;
#X connect 2 0 14 0;
#X connect 3 0 15 0;
#X connect 5 0 20 0;
#X connect 6 0 7 0;
#X connect 7 0 5 0;
#X connect 8 0 9 0;
#X connect 9 0 5 1;
#X connect 10 0 5 2;
#X connect 11 0 16 0;
#X connect 12 0 4 0;
#X connect 13 0 17 0;
#X connect 14 0 17 0;
#X connect 15 0 17 0;
#X connect 16 0 18 0;
#X connect 19 0 4 0;
#X connect 20 0 18 0;
#X restore 657 18 pd PROCESS_TEST;
#X msg 77 262 connect 192.168.0.12 18032;
#X connect 1 0 2 0;
#X connect 3 0 1 0;
#X connect 4 0 1 0;
#X connect 5 0 3 0;
#X connect 6 0 13 0;
#X connect 7 0 6 0;
#X connect 8 0 12 0;
#X connect 9 0 8 0;
#X connect 10 0 15 0;
#X connect 11 0 14 0;
#X connect 12 0 17 0;
#X connect 13 0 17 0;
#X connect 14 0 17 0;
#X connect 15 0 17 0;
#X connect 16 0 1 0;
#X connect 19 0 20 0;
#X connect 25 0 1 0;
