#N canvas 1331 469 822 976 16;
#X obj -73 352 cnv 15 800 600 empty empty misc 20 12 0 18 -191407 -66577
0;
#X obj -72 6 cnv 15 800 340 empty empty CUE_Messages 20 12 0 18 -262130
-66577 0;
#X obj -57 230 s \$0-toSatie;
#X msg -53 57 /satie/aquakhoria resetSync;
#X obj 292 206 OSCtx;
#X obj 351 194 tgl 36 0 empty empty onLineStatus 40 7 0 16 -262144
-1 -1 18254 18254;
#X msg 290 42 connect localhost 18032;
#X obj 297 73 r \$0-toSatie;
#X obj 288 8 loadbang;
#X obj 26 698 s \$0-toSatie;
#X obj 312 132 OSCprepend /satie/rendererCtl;
#X msg -52 95 freeSynths default;
#X msg -39 391 resetSync;
#X msg 31 436 setProjectDir /Users/zack/src/aquakhoria/AquaKhoria_UnityProject/Assets/StreamingAssets
;
#X msg 69 530 setProjectDir /Users/metalab/src/aquakhoria/AquaKhoria_UnityProject/Assets/StreamingAssets
;
#X msg 111 649 freeSynths default;
#X connect 4 0 5 0;
#X connect 6 0 4 0;
#X connect 7 0 10 0;
#X connect 8 0 6 0;
#X connect 10 0 4 0;
#X connect 11 0 2 0;
#X connect 12 0 9 0;
#X connect 13 0 9 0;
#X connect 14 0 9 0;
#X connect 15 0 9 0;
